<svg xmlns="http://www.w3.org/2000/svg" width="32" height="32"><g style="line-height:125%"><path d="M10.375-.031A1.39 1.39 0 0 0 9 1.344v.718L2 3.938a1.39 1.39 0 0 0-.969 1.687l2.344 8.656c-.68.38-1.156 1.081-1.156 1.906v13.625c0 1.223 1.017 2.22 2.25 2.22H27.75c1.232 0 2.25-.997 2.25-2.22V16.188c0-.906-.552-1.69-1.344-2.03l2.313-8.532A1.39 1.39 0 0 0 30 3.937l-7-1.874v-.72A1.39 1.39 0 0 0 21.625-.03h-11.25zm0 1h11.25a.37.37 0 0 1 .375.375v1.031a.5.5 0 0 0 0 .031v.063a.5.5 0 0 0 0 .094v11.406h-1V3.5a.5.5 0 0 0-.5-.5.526.526 0 0 1-.531-.531.5.5 0 0 0-.5-.5H12.53a.5.5 0 0 0-.5.5c0 .303-.239.531-.531.531a.5.5 0 0 0-.5.5v10.469h-1V2.563a.5.5 0 0 0 0-.25v-.97a.37.37 0 0 1 .375-.374zm2.438 2h6.374c.155.397.418.686.813.844v10.156h-8V3.813c.395-.158.658-.447.813-.844zm2.156 11c.775 0 1.375-.696 1.375-1.5 0-.487.315-.813.687-.813.373 0 .719.326.719.813 0 .486-.346.844-.719.844-.45-.014-.45.662 0 .656.656 0 1.142-.514 1.282-1.156h.343c.451.013.451-.663 0-.657h-.375c-.14-.642-.595-1.187-1.25-1.187-.703 0-1.375.516-1.375 1.469v.03c0 .487-.315.845-.687.845-.368 0-.71-.337-.719-.813v-.031c.014-.476.352-.813.719-.813.45.014.45-.694 0-.687-.665 0-1.207.534-1.344 1.187h-.281c-.188 0-.347.125-.344.313 0 .184.16.346.344.344h.281c.137.653.679 1.156 1.344 1.156zM9 3.094v1.062L4.625 5.313a.5.5 0 0 0-.375.625c.078.292-.062.549-.344.625a.5.5 0 0 0-.375.625l1.813 6.78h-.875c-.042 0-.084.03-.125.032L2 5.344c-.055-.205.077-.383.281-.438L9 3.094zm14 0 6.719 1.812c.204.055.336.233.281.438l-2.344 8.625h-1l1.813-6.781a.5.5 0 0 0-.375-.625c-.282-.076-.422-.333-.344-.625a.5.5 0 0 0-.375-.625L23 4.155V3.094zm-7 .875a1 1 0 1 0 0 2 1 1 0 0 0 0-2zM9 5.156v1.188a.92.92 0 0 0-.5 0A1 1 0 0 0 9 8.28v5.688H6.375l-1.781-6.75c.342-.255.516-.607.562-1.032L9 5.157zm14 0 3.844 1.032c.046.425.22.776.562 1.03l-1.812 6.75H23V8.282a1 1 0 0 0 .5-1.937.92.92 0 0 0-.5 0V5.156zM4.469 14.97H27.75c.708 0 1.25.545 1.25 1.219v3.78h-9.531L18 21.439v4.093l1.469 1.438H29v2.843c0 .674-.542 1.22-1.25 1.22H4.469c-.708 0-1.25-.546-1.25-1.22V16.188c0-.673.542-1.218 1.25-1.218zm15.406 6H29v5h-9.125L19 25.125V21.844l.875-.875zm1.563 1.156A1.45 1.45 0 0 0 20 23.563c0 .783.654 1.406 1.438 1.406.783 0 1.437-.623 1.437-1.407a1.45 1.45 0 0 0-1.438-1.437zm0 1c.243 0 .437.194.437.438 0 .243-.194.406-.438.406-.243 0-.437-.163-.437-.407 0-.243.194-.437.438-.437z" color="#000" overflow="visible" style="line-height:125%;text-indent:0;text-align:start;text-decoration-line:none;text-decoration-style:solid;text-decoration-color:#000;text-transform:none;block-progression:tb;white-space:normal;isolation:auto;mix-blend-mode:normal;solid-color:#000;solid-opacity:1" font-family="sans-serif" font-weight="400" letter-spacing="0" word-spacing="0"/></g></svg>